<svg width="512" height="512" viewBox="0 0 512 512" fill="none" xmlns="http://www.w3.org/2000/svg" role="img" aria-labelledby="title desc">
  <title id="title">Symmetric flat minesweeper mine icon</title>
  <desc id="desc">A minimalist top-down grey mine icon with a round body, short integrated blunt spikes, rivets, and circular plates.</desc>

  <rect width="512" height="512" rx="96" fill="transparent"/>

  <g transform="translate(256 256) scale(1.3)">
    <g fill="#7D858F" stroke="#5F6670" stroke-width="10" stroke-linejoin="round">
      <path d="M -24 -178 L 24 -178 L 36 -142 L -36 -142 Z"/>
      <path d="M -24 -178 L 24 -178 L 36 -142 L -36 -142 Z" transform="rotate(45)"/>
      <path d="M -24 -178 L 24 -178 L 36 -142 L -36 -142 Z" transform="rotate(90)"/>
      <path d="M -24 -178 L 24 -178 L 36 -142 L -36 -142 Z" transform="rotate(135)"/>
      <path d="M -24 -178 L 24 -178 L 36 -142 L -36 -142 Z" transform="rotate(180)"/>
      <path d="M -24 -178 L 24 -178 L 36 -142 L -36 -142 Z" transform="rotate(225)"/>
      <path d="M -24 -178 L 24 -178 L 36 -142 L -36 -142 Z" transform="rotate(270)"/>
      <path d="M -24 -178 L 24 -178 L 36 -142 L -36 -142 Z" transform="rotate(315)"/>
    </g>

    <circle r="154" fill="#89919B" stroke="#5F6670" stroke-width="12"/>
    <circle r="128" fill="#A9AFB7"/>
    <circle r="104" fill="none" stroke="#747C86" stroke-width="16"/>
    <circle r="70" fill="#8D949E" stroke="#686F79" stroke-width="10"/>
    <circle r="34" fill="#626973"/>

    <g fill="#636B75">
      <circle cx="0" cy="-126" r="13"/>
      <circle cx="89.1" cy="-89.1" r="13"/>
      <circle cx="126" cy="0" r="13"/>
      <circle cx="89.1" cy="89.1" r="13"/>
      <circle cx="0" cy="126" r="13"/>
      <circle cx="-89.1" cy="89.1" r="13"/>
      <circle cx="-126" cy="0" r="13"/>
      <circle cx="-89.1" cy="-89.1" r="13"/>
    </g>

    <g stroke="#6D7480" stroke-width="10" stroke-linecap="round">
      <line x1="0" y1="-92" x2="0" y2="-78"/>
      <line x1="65.05" y1="-65.05" x2="55.15" y2="-55.15"/>
      <line x1="92" y1="0" x2="78" y2="0"/>
      <line x1="65.05" y1="65.05" x2="55.15" y2="55.15"/>
      <line x1="0" y1="92" x2="0" y2="78"/>
      <line x1="-65.05" y1="65.05" x2="-55.15" y2="55.15"/>
      <line x1="-92" y1="0" x2="-78" y2="0"/>
      <line x1="-65.05" y1="-65.05" x2="-55.15" y2="-55.15"/>
    </g>
  </g>
</svg>
